<svg width="456" height="448" viewBox="0 0 456 448" fill="none" xmlns="http://www.w3.org/2000/svg">
<path d="M278.449 172.017C275.468 169.044 270.641 169.044 267.66 172.017L260.382 179.291C247.354 169.176 232.229 168.993 221.842 179.38C210.819 190.403 214.553 202.34 223.04 216.649L207.916 231.773C205.052 227.18 203.073 222.092 202.082 216.769C201.317 212.973 197.817 210.362 193.962 210.706L192.101 210.866C189.931 211.053 187.941 212.153 186.634 213.894C185.323 215.634 184.816 217.85 185.241 219.989C187.024 228.565 190.758 236.615 196.155 243.514L192.12 247.553C189.412 250.573 189.537 255.185 192.405 258.053C195.277 260.925 199.889 261.05 202.909 258.338L206.886 254.362C220.734 265.061 235.253 264.722 245.804 254.159C256.512 243.452 253.132 231.589 244.294 216.957L258.755 202.492C260.355 205.536 261.6 208.755 262.462 212.083C263.457 215.856 267.156 218.26 271.012 217.636L272.826 217.347C274.917 217.027 276.779 215.849 277.969 214.101C279.159 212.348 279.569 210.183 279.1 208.123C277.555 201.727 274.738 195.706 270.816 190.423L278.449 182.795C281.414 179.813 281.414 174.998 278.449 172.017V172.017ZM230.789 242.062C227.391 245.157 222.283 245.43 218.572 242.722L231.063 230.231C233.755 235.741 233.794 239.038 230.789 242.062ZM236.35 203.335C233.708 197.962 233.798 194.586 236.806 191.578C240.131 188.566 245.114 188.3 248.739 190.942L236.35 203.335ZM201.286 334.72C204.018 337.451 204.018 341.88 201.286 344.612C198.555 347.339 194.13 347.339 191.398 344.612L102.815 256.004C100.083 253.277 100.083 248.848 102.815 246.117C105.546 243.385 109.971 243.385 112.702 246.117L201.286 334.72ZM176.052 359.958C178.783 362.69 178.783 367.115 176.052 369.846C173.32 372.578 168.892 372.578 166.16 369.846L77.5645 281.262C74.8331 278.531 74.8331 274.106 77.5645 271.374C80.296 268.643 84.7248 268.643 87.4562 271.374L176.052 359.958ZM441.444 15.2258C428.665 3.17634 410.833 -1.91971 393.613 1.5609C376.015 4.86592 359.869 13.5323 347.386 26.3739C340.897 32.8435 335.379 40.2183 331.001 48.2721L236.986 49.907C225.627 50.0709 214.783 54.6753 206.776 62.733L2.07979 267.433C0.749195 268.733 5.72205e-06 270.512 5.72205e-06 272.37C5.72205e-06 274.227 0.749195 276.006 2.07979 277.302L170.097 445.362C172.825 448.078 177.238 448.078 179.965 445.362L384.705 240.662C392.751 232.631 397.351 221.78 397.531 210.417L398.928 129.981C399.01 129.942 399.049 129.942 399.131 129.903C410.821 125.24 421.431 118.22 430.296 109.284C443.138 96.8094 451.796 80.6589 455.07 63.053C455.667 59.5021 455.976 55.9084 455.987 52.3068C456.288 38.4975 451.051 25.1448 441.444 15.2258ZM323.213 96.6182C325.242 105.616 329.757 113.865 336.238 120.432C338.626 122.832 341.279 124.947 344.147 126.746C336.363 128.209 328.445 124.966 323.923 118.462C319.404 111.957 319.124 103.404 323.213 96.6182V96.6182ZM383.546 210.175C383.409 217.909 380.272 225.288 374.794 230.754L175.053 430.495L16.9036 272.389L216.648 72.6051C222.123 67.1423 229.494 64.009 237.224 63.8529L325.09 62.335C323.982 65.6868 323.143 69.1206 322.573 72.6051C322.253 74.521 322.011 76.4408 321.851 78.3567C319.845 79.6561 317.98 81.1701 316.298 82.8714C303.145 96.2202 303.223 117.677 316.47 130.929C329.721 144.18 351.183 144.254 364.528 131.1L364.567 131.061C365.433 130.203 366.244 129.298 367.005 128.346C367.641 127.546 368.242 126.746 368.843 125.868L368.96 125.626C369.522 124.787 370.041 123.909 370.521 123.031C370.564 122.984 370.591 122.93 370.599 122.871C371.063 122.013 371.477 121.135 371.84 120.233C372.386 119.016 372.839 117.759 373.198 116.476C373.479 115.492 373.709 114.49 373.877 113.479C374.084 112.546 374.232 111.598 374.318 110.642V110.482C374.365 110.1 374.392 109.713 374.396 109.323C374.431 109.007 374.443 108.687 374.435 108.367C374.501 107.165 374.489 105.967 374.396 104.77C374.357 103.97 374.275 103.17 374.158 102.374C373.198 94.9833 369.811 88.1235 364.528 82.8714C363.135 81.4666 361.609 80.1946 359.97 79.0786C359.97 78.9576 360.013 78.8757 360.013 78.7977C360.598 75.4731 361.605 72.2384 363.01 69.1675C363.17 69.2494 363.33 69.3665 363.49 69.4484C374.376 76.3121 381.938 87.3782 384.385 100.013C384.381 100.06 384.393 100.103 384.424 100.134C384.397 100.349 384.412 100.563 384.467 100.774C384.705 102.214 384.943 103.611 385.064 104.969C385.103 105.53 385.146 106.127 385.185 106.685C385.271 107.762 385.298 108.843 385.263 109.924L385.025 124.069V124.229L383.546 210.175ZM371.04 57.6604C370.872 57.5433 370.701 57.438 370.521 57.3404C371.66 55.8927 372.886 54.5192 374.197 53.2238C381.103 46.0167 390.031 41.0689 399.81 39.0399C403.563 38.4 410.478 37.9629 414.591 42.0757C418.707 46.1923 418.27 53.1067 417.63 56.8605C415.609 66.6272 410.661 75.5473 403.446 82.4344C401.086 84.7912 398.518 86.9295 395.771 88.8259C391.303 75.9336 382.582 64.9416 371.04 57.6604V57.6604ZM441.284 60.7781C438.471 75.5043 431.17 89.0015 420.385 99.416C414.2 105.624 407.032 110.767 399.17 114.638L399.248 110.162C399.291 108.804 399.248 107.485 399.17 106.127C399.131 105.25 399.049 104.329 398.971 103.412V103.373C404.227 100.341 409.061 96.6338 413.354 92.3416C422.617 83.3747 428.919 71.7896 431.416 59.1392C432.493 52.7438 433.012 40.7178 424.463 32.1684C415.909 23.6191 403.922 24.1771 397.531 25.215C384.884 27.7435 373.303 34.057 364.329 43.3165C361.843 45.8099 359.549 48.4789 357.453 51.3079C354.554 55.1748 352.1 59.3538 350.141 63.7748C348.736 66.9121 347.624 70.1781 346.824 73.5221C346.586 74.521 346.387 75.52 346.227 76.5189C345.595 80.1907 345.486 83.9288 345.907 87.628C346.442 93.5824 349.009 99.1702 353.18 103.451C355.268 105.546 357.738 107.228 360.45 108.406C360.411 108.843 360.372 109.245 360.333 109.682C360.251 110.205 360.173 110.724 360.052 111.243C359.97 111.731 359.849 112.211 359.693 112.679C359.521 113.319 359.307 113.947 359.053 114.56C358.889 114.981 358.702 115.395 358.495 115.797C358.335 116.156 358.132 116.476 357.933 116.835C357.734 117.198 357.535 117.557 357.293 117.916C353.118 116.206 349.317 113.694 346.106 110.525C340.077 104.27 336.441 96.0954 335.836 87.4289C335.512 83.2382 335.699 79.024 336.398 74.88C336.476 74.283 336.597 73.7211 336.718 73.1241C337.459 69.4094 338.54 65.7688 339.953 62.257C341.79 57.5589 344.12 53.0716 346.906 48.8691C349.922 44.3232 353.391 40.0934 357.254 36.2421C367.676 25.4764 381.174 18.1913 395.892 15.3858C398.651 14.9136 401.445 14.6717 404.242 14.6678C409.413 14.6288 414.544 15.538 419.386 17.3446C423.952 19.0342 428.096 21.6915 431.533 25.137C440.395 34.7164 444.035 48.0185 441.284 60.7781V60.7781Z" fill="#B8B8B8"/>
</svg>
