<svg width="30" height="30" viewBox="0 0 30 30" fill="none" xmlns="http://www.w3.org/2000/svg">
<path d="M25.3536 19.3536C25.5488 19.1583 25.5488 18.8417 25.3536 18.6464L22.1716 15.4645C21.9763 15.2692 21.6597 15.2692 21.4645 15.4645C21.2692 15.6597 21.2692 15.9763 21.4645 16.1716L24.2929 19L21.4645 21.8284C21.2692 22.0237 21.2692 22.3403 21.4645 22.5355C21.6597 22.7308 21.9763 22.7308 22.1716 22.5355L25.3536 19.3536ZM5 19.5H25V18.5H5V19.5Z" fill="#2D7CC2"/>
<path d="M4.64645 11.3536C4.45118 11.1583 4.45118 10.8417 4.64645 10.6464L7.82843 7.46447C8.02369 7.2692 8.34027 7.2692 8.53553 7.46447C8.7308 7.65973 8.7308 7.97631 8.53553 8.17157L5.70711 11L8.53553 13.8284C8.7308 14.0237 8.7308 14.3403 8.53553 14.5355C8.34027 14.7308 8.02369 14.7308 7.82843 14.5355L4.64645 11.3536ZM25 11.5H5V10.5H25V11.5Z" fill="#2D7CC2"/>
</svg>
